<?xml version="1.0" encoding="iso-8859-1"?>
<!-- Generator: Adobe Illustrator 16.0.0, SVG Export Plug-In . SVG Version: 6.00 Build 0)  -->
<!DOCTYPE svg PUBLIC "-//W3C//DTD SVG 1.1//EN" "http://www.w3.org/Graphics/SVG/1.1/DTD/svg11.dtd">
<svg version="1.1" id="Capa_1" xmlns="http://www.w3.org/2000/svg" xmlns:xlink="http://www.w3.org/1999/xlink" x="0px"
     y="0px"
     width="447.441px" height="447.441px" viewBox="0 0 447.441 447.441"
     style="enable-background:new 0 0 447.441 447.441;"
     xml:space="preserve">
<g>
	<g>
		<path d="M315.036,174.004V91.303C315.036,40.961,274.068,0,223.722,0c-50.35,0-91.311,40.961-91.311,91.303v82.695
			c-36.836,27.766-60.697,71.867-60.697,121.436c0,83.822,68.191,152.008,152.008,152.008c83.814,0,152.006-68.186,152.006-152.008
			C375.728,245.866,351.867,201.77,315.036,174.004z M156.579,91.303c0-37.02,30.123-67.135,67.143-67.135
			c37.025,0,67.146,30.115,67.146,67.135v67.807c-20.263-10.018-43.052-15.682-67.146-15.682c-24.092,0-46.879,5.658-67.143,15.682
			V91.303z M223.722,423.273c-70.492,0-127.84-57.342-127.84-127.84c0-70.485,57.348-127.837,127.84-127.837
			S351.56,224.948,351.56,295.434C351.56,365.932,294.214,423.273,223.722,423.273z"/>
        <path d="M223.722,246.721c-26.859,0-48.715,21.854-48.715,48.713c0,26.859,21.855,48.715,48.715,48.715
			c26.857,0,48.713-21.854,48.713-48.715C272.435,268.574,250.579,246.721,223.722,246.721z M223.722,319.98
			c-13.537,0-24.547-11.012-24.547-24.547c0-13.534,11.01-24.545,24.547-24.545c13.535,0,24.545,11.011,24.545,24.545
			C248.267,308.969,237.257,319.98,223.722,319.98z"/>
	</g>
</g>
    <g>
</g>
    <g>
</g>
    <g>
</g>
    <g>
</g>
    <g>
</g>
    <g>
</g>
    <g>
</g>
    <g>
</g>
    <g>
</g>
    <g>
</g>
    <g>
</g>
    <g>
</g>
    <g>
</g>
    <g>
</g>
    <g>
</g>
</svg>
