<?xml version="1.0" encoding="iso-8859-1"?>
<!-- Generator: Adobe Illustrator 16.0.0, SVG Export Plug-In . SVG Version: 6.00 Build 0)  -->
<!DOCTYPE svg PUBLIC "-//W3C//DTD SVG 1.1//EN" "http://www.w3.org/Graphics/SVG/1.1/DTD/svg11.dtd">
<svg version="1.1" id="Capa_1" xmlns="http://www.w3.org/2000/svg" xmlns:xlink="http://www.w3.org/1999/xlink" x="0px"
     y="0px"
     width="408.502px" height="408.503px" viewBox="0 0 408.502 408.503"
     style="enable-background:new 0 0 408.502 408.503;"
     xml:space="preserve">
<g>
	<g>
		<path d="M321.526,185.854h-28.988V88.285C292.538,39.602,252.932,0,204.252,0s-88.285,39.603-88.285,88.285
			c0,5.826,4.72,10.541,10.542,10.541c5.822,0,10.542-4.715,10.542-10.541c0-37.05,30.147-67.202,67.202-67.202
			c37.054,0,67.201,30.152,67.201,67.202v97.569H126.508h-39.53c-5.822,0-10.542,4.715-10.542,10.543V397.96
			c0,5.818,4.72,10.543,10.542,10.543h234.548c5.82,0,10.541-4.725,10.541-10.543V196.397
			C332.067,190.569,327.348,185.854,321.526,185.854z M310.985,387.419H97.519V206.939h28.989h155.487h28.99V387.419z"/>
        <path d="M204.252,240.023c-18.255,0-33.107,14.855-33.107,33.105c0,8.629,3.434,16.883,9.389,23.02v47.644
			c0,5.816,4.72,10.541,10.542,10.541h26.354c5.82,0,10.541-4.725,10.541-10.541v-47.644c5.955-6.137,9.391-14.391,9.391-23.02
			C237.36,254.88,222.506,240.023,204.252,240.023z M211.252,282.839c-2.74,1.978-4.365,5.158-4.365,8.545v41.867h-5.27v-41.867
			c0-3.387-1.624-6.567-4.365-8.545c-3.193-2.305-5.023-5.848-5.023-9.709c0-6.627,5.395-12.021,12.024-12.021
			c6.628,0,12.023,5.395,12.023,12.021C216.276,276.991,214.446,280.534,211.252,282.839z"/>
	</g>
</g>
    <g>
</g>
    <g>
</g>
    <g>
</g>
    <g>
</g>
    <g>
</g>
    <g>
</g>
    <g>
</g>
    <g>
</g>
    <g>
</g>
    <g>
</g>
    <g>
</g>
    <g>
</g>
    <g>
</g>
    <g>
</g>
    <g>
</g>
</svg>
